<svg xmlns="http://www.w3.org/2000/svg" width="512" height="512" viewBox="0 0 512 512">
  <defs>
    <linearGradient id="gold" x1="0%" y1="0%" x2="100%" y2="100%">
      <stop offset="0%" style="stop-color:#FFD700"/>
      <stop offset="100%" style="stop-color:#FFA500"/>
    </linearGradient>
  </defs>
  <circle cx="256" cy="256" r="240" fill="url(#gold)"/>
  <g transform="translate(128, 128) scale(10.67)" fill="none" stroke="white" stroke-width="2" stroke-linecap="round" stroke-linejoin="round">
    <path d="M15 4l-11 11 4 4 11-11-4-4z"/>
    <path d="M18 2l1 2 2 1-2 1-1 2-1-2-2-1 2-1 1-2z"/>
    <path d="M3 13l.5 1 1 .5-1 .5-.5 1-.5-1-1-.5 1-.5.5-1z"/>
    <path d="M10 2l.5 1 1 .5-1 .5-.5 1-.5-1-1-.5 1-.5.5-1z"/>
  </g>
</svg>
